<svg xmlns="http://www.w3.org/2000/svg" xmlns:xlink="http://www.w3.org/1999/xlink" contentStyleType="text/css" data-diagram-type="CLASS" height="468px" preserveAspectRatio="none" style="width:199px;height:468px;background:#FFFFFF;" version="1.1" viewBox="0 0 199 468" width="199px" zoomAndPan="magnify"><defs/><g><!--cluster mod__persistency--><a href="../module/index.html#mod__persistency" target="_top" title="../module/index.html#mod__persistency" xlink:actuate="onRequest" xlink:href="../module/index.html#mod__persistency" xlink:show="new" xlink:title="../module/index.html#mod__persistency" xlink:type="simple"><path d="M8.5,261.5 L163.9102,261.5 A3.75,3.75 0 0 1 166.4102,264 L173.4102,283.7969 L189.5,283.7969 A2.5,2.5 0 0 1 192,286.2969 L192,356 A2.5,2.5 0 0 1 189.5,358.5 L8.5,358.5 A2.5,2.5 0 0 1 6,356 L6,264 A2.5,2.5 0 0 1 8.5,261.5 " fill="transparent" style="stroke:#000000;stroke-width:1.5;"/><line style="stroke:#000000;stroke-width:1.5;" x1="6" x2="173.4102" y1="283.7969" y2="283.7969"/><text fill="#000000" font-family="sans-serif" font-size="14" font-weight="bold" lengthAdjust="spacing" textLength="154.4102" x="10" y="276.4951">Persistency Module</text></a><!--entity comp__persistency_kvs--><a href="../components/kvs/architecture/component_architecture.html#comp__persistency_kvs" target="_top" title="../components/kvs/architecture/component_architecture.html#comp__persistency_kvs" xlink:actuate="onRequest" xlink:href="../components/kvs/architecture/component_architecture.html#comp__persistency_kvs" xlink:show="new" xlink:title="../components/kvs/architecture/component_architecture.html#comp__persistency_kvs" xlink:type="simple"><rect fill="#F1F1F1" height="46.2969" rx="2.5" ry="2.5" style="stroke:#FF0000;stroke-width:2;" width="153.8115" x="22" y="296.5"/><rect fill="#F1F1F1" height="10" style="stroke:#FF0000;stroke-width:2;" width="15" x="155.8115" y="301.5"/><rect fill="#F1F1F1" height="2" style="stroke:#FF0000;stroke-width:2;" width="4" x="153.8115" y="303.5"/><rect fill="#F1F1F1" height="2" style="stroke:#FF0000;stroke-width:2;" width="4" x="153.8115" y="307.5"/><text fill="#000000" font-family="sans-serif" font-size="14" lengthAdjust="spacing" textLength="113.8115" x="37" y="329.4951">persistency::kvs</text></a><!--entity Feature_User--><g id="elem_Feature_User"><ellipse cx="99.1685" cy="14" fill="#F1F1F1" rx="8" ry="8" style="stroke:#181818;stroke-width:0.5;"/><path d="M99.1685,22 L99.1685,49 M86.1685,30 L112.1685,30 M99.1685,49 L86.1685,64 M99.1685,49 L112.1685,64 " fill="transparent" style="stroke:#181818;stroke-width:0.5;"/><text fill="#000000" font-family="sans-serif" font-size="14" lengthAdjust="spacing" textLength="90.3369" x="54" y="78.4951">Feature User</text></g><!--class logic_arc_int__persistency__interface--><a href="https://eclipse-score.github.io/score/main/features/persistency/architecture/index.html#logic_arc_int__persistency__interface" target="_top" title="https://eclipse-score.github.io/score/main/features/persistency/architecture/index.html#logic_arc_int__persistency__interface" xlink:actuate="onRequest" xlink:href="https://eclipse-score.github.io/score/main/features/persistency/architecture/index.html#logic_arc_int__persistency__interface" xlink:show="new" xlink:title="https://eclipse-score.github.io/score/main/features/persistency/architecture/index.html#logic_arc_int__persistency__interface" xlink:type="simple"><g id="elem_logic_arc_int__persistency__interface"><rect codeLine="14" fill="#F1F1F1" height="40" id="logic_arc_int__persistency__interface" rx="2.5" ry="2.5" style="stroke:#181818;stroke-width:0.5;" width="59.8154" x="69" y="158.5"/><ellipse cx="84" cy="174.5" fill="#B4A7E5" rx="11" ry="11" style="stroke:#181818;stroke-width:1;"/><path d="M79.9219,170.2656 L79.9219,168.1094 L87.3125,168.1094 L87.3125,170.2656 L84.8438,170.2656 L84.8438,178.3438 L87.3125,178.3438 L87.3125,180.5 L79.9219,180.5 L79.9219,178.3438 L82.3906,178.3438 L82.3906,170.2656 L79.9219,170.2656 Z " fill="#000000"/><text fill="#000000" font-family="sans-serif" font-size="14" font-style="italic" lengthAdjust="spacing" textLength="27.8154" x="98" y="179.3467">Ikvs</text><line style="stroke:#181818;stroke-width:0.5;" x1="70" x2="127.8154" y1="190.5" y2="190.5"/></g></a><!--class logic_arc_int__baselibs__json--><a href="https://eclipse-score.github.io/score/main/features/baselibs/architecture/index.html#logic_arc_int__baselibs__json" target="_top" title="https://eclipse-score.github.io/score/main/features/baselibs/architecture/index.html#logic_arc_int__baselibs__json" xlink:actuate="onRequest" xlink:href="https://eclipse-score.github.io/score/main/features/baselibs/architecture/index.html#logic_arc_int__baselibs__json" xlink:show="new" xlink:title="https://eclipse-score.github.io/score/main/features/baselibs/architecture/index.html#logic_arc_int__baselibs__json" xlink:type="simple"><g id="elem_logic_arc_int__baselibs__json"><rect codeLine="25" fill="#F1F1F1" height="40" id="logic_arc_int__baselibs__json" rx="2.5" ry="2.5" style="stroke:#181818;stroke-width:0.5;" width="64.9902" x="66.5" y="421.5"/><ellipse cx="81.5" cy="437.5" fill="#B4A7E5" rx="11" ry="11" style="stroke:#181818;stroke-width:1;"/><path d="M77.4219,433.2656 L77.4219,431.1094 L84.8125,431.1094 L84.8125,433.2656 L82.3438,433.2656 L82.3438,441.3438 L84.8125,441.3438 L84.8125,443.5 L77.4219,443.5 L77.4219,441.3438 L79.8906,441.3438 L79.8906,433.2656 L77.4219,433.2656 Z " fill="#000000"/><text fill="#000000" font-family="sans-serif" font-size="14" font-style="italic" lengthAdjust="spacing" textLength="32.9902" x="95.5" y="442.3467">IJson</text><line style="stroke:#181818;stroke-width:0.5;" x1="67.5" x2="130.4902" y1="453.5" y2="453.5"/></g></a><!--link comp__persistency_kvs to logic_arc_int__baselibs__json--><g id="link_comp__persistency_kvs_logic_arc_int__baselibs__json"><path codeLine="31" d="M99,342.51 C99,365.11 99,393.92 99,415.4 " fill="transparent" id="comp__persistency_kvs-to-logic_arc_int__baselibs__json" style="stroke:#008000;stroke-width:1;"/><polygon fill="#008000" points="99,421.4,103,412.4,99,416.4,95,412.4,99,421.4" style="stroke:#008000;stroke-width:1;"/><text fill="#000000" font-family="sans-serif" font-size="13" lengthAdjust="spacing" textLength="29.7832" x="100" y="387.5669">uses</text></g><!--reverse link logic_arc_int__persistency__interface to comp__persistency_kvs--><g id="link_logic_arc_int__persistency__interface_comp__persistency_kvs"><path codeLine="32" d="M99,204.54 C99,230.11 99,269.47 99,296.49 " fill="transparent" id="logic_arc_int__persistency__interface-backto-comp__persistency_kvs" style="stroke:#181818;stroke-width:1;"/><polygon fill="#181818" points="99,198.54,95,207.54,99,203.54,103,207.54,99,198.54" style="stroke:#181818;stroke-width:1;"/><text fill="#000000" font-family="sans-serif" font-size="13" lengthAdjust="spacing" textLength="76.9082" x="100" y="241.5669">implements</text></g><!--link Feature_User to logic_arc_int__persistency__interface--><g id="link_Feature_User_logic_arc_int__persistency__interface"><path codeLine="33" d="M99,81.55 C99,106.45 99,132.26 99,152.26 " fill="transparent" id="Feature_User-to-logic_arc_int__persistency__interface" style="stroke:#181818;stroke-width:1;"/><polygon fill="#181818" points="99,158.26,103,149.26,99,153.26,95,149.26,99,158.26" style="stroke:#181818;stroke-width:1;"/><text fill="#000000" font-family="sans-serif" font-size="13" lengthAdjust="spacing" textLength="23.0103" x="100" y="124.5669">use</text></g><!--SRC=[dLDDRzim3BthLn3feQTOmuv1aCk00HjQO8Vj50I2BBCs5raoH7fhCFI_JxRxORTP4UmeFlBnyJtRUXz_cvRkATHAOWSIeOmYiOMA4ZgX65H35G8B9enowd1wOzl92Qn8eh8NPBLbENdSgS8o-HB-g1iA-2dwc21XDRw-D-IE0PdXO_51FQYjVfnHradkMtr6Atr2-C6OLc0P7WjcA82Ya4NSMOUm-dBynME7ZpKvOvCp6JMcmyIKjGPtCkQb7_RxHgJZZTReF7MCQtOnOL6JD7rPKDJZMxUMWhwRjhAUiUcyeY79bcH4KwZmlcYazLSN2JWSiY5AFO2-Xa4wN6jGghFkQEjypRUN8RYDLUznlAsDrO9mEACeT3jsp3MyRiphyZuNsou630Ah6RRPF5atu4l1WxBjTWnmjvkMFPEmpkZIXMVCpCkJfBFaawxHXTUA9aT6wAqR4pYF_ol7S2x_qZ9wAjcOdxdZVtD_OhaqzENMHTY3q4c-Ek_tkjfVrGan7DQxzw_PGC_8y2-U_kty-Ozn0zHs7jiXL52BNsnTNKwInO3w2m00]--></g></svg>